<?xml version="1.0" standalone="no"?>
<!DOCTYPE svg PUBLIC "-//W3C//DTD SVG 20010904//EN"
 "http://www.w3.org/TR/2001/REC-SVG-20010904/DTD/svg10.dtd">
<svg version="1.0" xmlns="http://www.w3.org/2000/svg"
 width="1448.000000pt" height="887.000000pt" viewBox="0 0 1448.000000 887.000000"
 preserveAspectRatio="xMidYMid meet">
<metadata>
Created by potrace 1.16, written by Peter Selinger 2001-2019
</metadata>
<g transform="translate(0.000000,887.000000) scale(0.100000,-0.100000)"
fill="#000000" stroke="none">
<path d="M7790 8111 c-358 -129 -771 -363 -1083 -612 -136 -109 -414 -390
-508 -514 -85 -112 -114 -155 -356 -540 -93 -148 -248 -393 -343 -544 -129
-206 -169 -275 -159 -282 7 -4 130 -52 273 -106 l260 -98 -388 -3 c-303 -2
-387 -5 -383 -15 3 -9 98 -13 409 -15 l406 -2 222 402 c123 222 226 407 230
411 7 9 183 -56 187 -70 2 -4 -47 -188 -107 -407 -61 -220 -108 -402 -105
-405 4 -3 192 -56 418 -117 l412 -111 8 166 c5 91 10 167 11 169 2 1 306 11
677 23 371 11 693 22 717 25 l42 5 0 1190 0 1189 -32 0 -33 0 3 -1159 4 -1159
-54 -6 c-29 -3 -300 -12 -603 -21 -302 -8 -588 -18 -634 -21 l-84 -6 7 73 c93
969 396 1724 905 2252 l56 58 0 118 0 119 -120 20 c-66 11 -127 23 -135 26 -8
3 -62 -12 -120 -33z m-5 -167 c36 -9 65 -20 65 -24 0 -12 -421 -395 -434 -395
-13 0 -135 87 -136 97 0 6 429 337 438 338 2 0 32 -7 67 -16z m-728 -719 c2
-1 -29 -44 -67 -96 -122 -165 -205 -349 -232 -511 -12 -77 -3 -73 -129 -56
-66 8 -89 15 -89 26 0 24 69 192 112 272 72 134 170 271 271 377 l40 42 46
-26 c25 -15 47 -27 48 -28z"/>
<path d="M8893 5081 c-117 -4 -214 -9 -216 -11 -3 -3 -8 -668 -12 -1477 l-7
-1473 171 0 171 0 1 603 c1 331 4 631 8 666 6 61 8 66 41 85 30 18 56 21 175
24 131 4 141 3 159 -16 17 -19 19 -65 36 -632 l18 -610 26 -54 c32 -66 130
-160 208 -201 31 -16 56 -31 54 -32 -2 -2 -1315 -3 -2919 -3 l-2917 0 0 -85 0
-85 3675 0 3676 0 -3 83 -3 82 -727 3 -728 2 0 674 0 674 -95 151 c-53 83 -98
158 -101 166 -3 8 36 80 90 165 l97 151 -3 418 -3 418 -39 59 c-50 76 -157
179 -232 224 l-58 35 -166 1 c-91 1 -260 -2 -377 -5z m509 -236 c14 -14 28
-42 32 -63 3 -20 6 -253 6 -517 l0 -480 -23 -28 -22 -27 -191 -7 -191 -6 -6
324 c-4 178 -7 435 -7 571 l0 247 43 4 c23 2 108 4 188 5 144 2 147 2 171 -23z"/>
<path d="M5907 4448 c-4 -332 -10 -992 -13 -1467 l-7 -864 108 6 c59 4 134 7
167 7 l58 0 0 1310 c0 1396 -1 1356 45 1374 32 12 320 7 336 -6 15 -14 15
-195 -5 -2064 l-7 -611 162 -7 c88 -4 163 -5 166 -3 2 3 8 561 13 1241 11
1362 11 1338 -50 1462 -40 81 -117 152 -207 190 l-68 29 -346 3 -346 3 -6
-603z"/>
<path d="M7522 4995 c-79 -59 -171 -160 -233 -255 l-49 -75 5 -1160 c3 -638 8
-1211 11 -1272 l6 -113 164 0 164 0 1 233 c1 127 5 428 8 666 l6 435 35 20
c28 17 57 21 162 24 149 5 171 1 186 -33 9 -19 12 -204 12 -690 l0 -665 175 0
175 0 -6 563 c-3 309 -9 893 -13 1298 l-6 735 -39 78 c-26 54 -59 99 -105 145
-103 104 -106 105 -372 109 l-226 3 -61 -46z m445 -157 l23 -21 0 -542 0 -542
-112 -6 c-62 -4 -156 -7 -209 -7 l-97 0 5 168 c2 92 8 339 12 550 5 210 11
385 14 389 5 4 180 22 321 32 11 0 30 -9 43 -21z"/>
<path d="M10429 4987 c-86 -72 -166 -160 -224 -247 l-47 -71 7 -1274 8 -1275
167 0 167 0 6 661 c6 746 -1 689 88 708 58 13 268 14 287 3 29 -19 32 -89 32
-717 0 -352 0 -646 0 -653 0 -10 38 -12 172 -10 l172 3 -3 455 c-1 250 -6 833
-10 1296 l-8 841 -33 66 c-61 125 -169 232 -258 257 -20 5 -132 10 -248 10
l-210 0 -65 -53z m456 -152 l25 -24 0 -539 0 -539 -112 -6 c-62 -4 -158 -7
-212 -7 l-99 0 6 173 c4 94 10 344 13 555 4 210 10 382 13 383 5 1 263 23 324
28 10 0 29 -10 42 -24z"/>
<path d="M5306 4548 c-19 -1447 -26 -1995 -26 -2191 l0 -217 163 2 162 3 11
925 c6 509 14 1158 18 1443 l7 517 -164 0 -165 0 -6 -482z"/>
<path d="M4056 4948 c-6 -58 -26 -380 -26 -422 l0 -26 154 0 153 0 7 38 c3 20
6 64 6 97 0 33 3 77 6 98 l7 38 131 -2 c72 -1 145 -4 162 -6 l31 -5 6 -233 7
-233 -231 -444 c-127 -244 -267 -513 -311 -598 -44 -85 -102 -196 -129 -246
l-48 -90 -7 -367 -7 -367 24 0 c13 0 179 -7 369 -15 190 -8 405 -16 478 -17
l134 -3 -2 265 c0 145 -2 266 -4 267 -1 2 -71 0 -155 -4 l-152 -6 3 -129 3
-128 -171 0 -171 0 -6 248 -6 247 350 705 350 705 -10 275 c-6 151 -11 305
-11 343 l0 67 -464 0 -465 0 -5 -52z"/>
<path d="M8924 1474 c-10 -8 -14 -17 -9 -20 40 -17 73 -47 92 -81 l22 -39 -52
-35 c-40 -26 -56 -45 -72 -82 -17 -44 -18 -51 -4 -75 10 -19 24 -28 48 -30 28
-3 39 3 75 40 45 47 66 101 66 169 0 110 -102 205 -166 153z"/>
<path d="M10760 1412 c-19 -9 -37 -26 -39 -37 -2 -11 -20 -60 -41 -110 -50
-118 -53 -145 -19 -164 24 -14 31 -13 68 3 44 20 78 52 67 63 -4 4 -20 -1 -36
-11 -33 -19 -50 -15 -50 12 0 9 23 64 50 122 47 99 60 140 43 140 -5 0 -24 -8
-43 -18z"/>
<path d="M10941 1407 c-18 -6 -37 -20 -41 -31 -5 -12 -26 -64 -48 -116 -53
-123 -55 -149 -20 -169 26 -15 31 -15 73 8 26 13 51 33 56 43 12 22 -1 24 -40
3 -59 -30 -55 7 15 146 30 62 52 115 47 119 -4 4 -23 2 -42 -3z"/>
<path d="M9252 1344 c-15 -10 -22 -25 -22 -48 0 -18 -7 -41 -15 -52 -13 -18
-14 -16 -12 21 2 39 2 40 -32 38 -44 -2 -62 -20 -38 -37 22 -17 22 -53 -2 -93
-19 -30 -19 -32 -2 -47 26 -24 48 -10 83 50 25 45 35 54 58 54 27 0 27 1 26
62 -1 67 -9 77 -44 52z"/>
<path d="M7392 1330 c-25 -23 -32 -48 -72 -239 -17 -80 -27 -148 -22 -153 15
-15 51 22 58 60 10 56 15 58 35 13 18 -41 51 -63 79 -53 29 10 80 53 80 68 0
16 -16 19 -25 4 -3 -5 -19 -10 -36 -10 -22 0 -34 8 -49 33 -10 17 -24 37 -30
44 -7 9 -4 17 15 29 35 23 53 6 30 -29 -22 -35 1 -49 26 -16 34 45 48 82 38
101 -15 28 -45 22 -89 -18 -22 -20 -40 -32 -40 -28 0 5 13 49 29 98 16 49 27
96 24 103 -7 19 -26 16 -51 -7z"/>
<path d="M9604 1325 c-24 -24 -26 -31 -20 -79 7 -56 -8 -84 -39 -72 -21 8 -19
45 5 101 24 56 24 55 5 55 -40 0 -61 -22 -78 -83 -18 -63 -14 -105 12 -121 23
-15 93 18 127 59 30 37 34 49 34 98 0 31 -4 59 -10 62 -5 3 -22 -6 -36 -20z"/>
<path d="M9754 1318 c-55 -38 -100 -112 -89 -148 13 -40 101 -62 159 -40 39
15 32 32 -9 24 -22 -4 -41 -2 -50 6 -13 11 -10 15 17 29 55 27 95 120 66 149
-19 19 -43 14 -94 -20z"/>
<path d="M9386 1325 c-44 -18 -97 -156 -73 -189 12 -16 18 -17 55 -5 41 12 81
44 69 55 -3 3 -14 1 -25 -5 -38 -20 -42 13 -12 85 27 62 24 74 -14 59z"/>
<path d="M10168 1307 c-24 -27 -68 -139 -68 -173 0 -38 29 -29 82 23 48 47 48
47 48 19 0 -81 60 -91 127 -20 41 44 43 50 43 106 0 63 -16 82 -46 57 -11 -9
-14 -28 -12 -73 2 -64 -4 -86 -27 -86 -23 0 -27 38 -10 91 27 80 -17 94 -55
18 -18 -34 -59 -74 -67 -65 -2 2 6 24 18 49 33 67 11 103 -33 54z"/>
<path d="M8492 1294 c-23 -23 -32 -45 -42 -101 -14 -76 -10 -100 17 -110 12
-5 30 8 65 46 l48 52 0 -41 c0 -44 19 -61 45 -40 11 9 15 35 15 106 0 85 -2
94 -19 94 -13 0 -30 -21 -55 -70 -56 -105 -74 -104 -37 3 16 46 17 58 6 73
-12 17 -15 16 -43 -12z"/>
<path d="M10515 1296 c-56 -34 -88 -81 -89 -130 -1 -39 0 -41 47 -58 40 -15
56 -16 88 -8 50 14 50 30 0 30 -51 0 -60 15 -21 35 39 20 82 88 78 123 -4 37
-49 41 -103 8z"/>
<path d="M8314 1278 c-64 -56 -94 -106 -94 -155 0 -36 4 -45 24 -54 69 -32
166 59 166 154 0 33 -31 87 -50 87 -5 0 -26 -15 -46 -32z"/>
<path d="M8021 1251 c-13 -13 -21 -33 -20 -53 1 -58 15 -138 26 -149 19 -19
49 7 68 56 26 69 29 48 6 -43 -25 -96 -27 -155 -6 -172 13 -11 21 -7 49 23 32
34 51 83 36 92 -4 2 -15 -13 -25 -33 -33 -66 -29 -10 9 127 39 140 43 171 22
171 -20 0 -68 -58 -91 -110 l-20 -45 -5 74 c-5 81 -16 95 -49 62z"/>
<path d="M7635 1188 c-68 -59 -99 -164 -56 -188 29 -15 108 -12 142 5 37 20
29 37 -10 22 -15 -5 -36 -7 -46 -3 -16 6 -15 11 17 44 96 100 53 209 -47 120z"/>
<path d="M7137 1113 c-61 -46 -117 -129 -117 -173 0 -22 5 -42 10 -45 18 -11
75 14 105 45 36 37 41 37 49 0 4 -25 10 -30 33 -30 l28 0 1 108 c1 70 -2 110
-10 114 -23 15 -63 7 -99 -19z"/>
<path d="M6933 1068 c-11 -13 -33 -41 -48 -63 l-27 -40 5 41 c5 41 -6 74 -23
74 -5 0 -30 -30 -55 -67 l-46 -68 7 58 c6 53 5 57 -13 57 -30 0 -38 -16 -57
-110 -21 -109 -20 -120 3 -120 22 0 63 45 92 101 11 22 21 39 24 39 2 0 1 -22
-2 -49 -4 -32 -2 -51 7 -56 15 -9 57 30 81 78 11 20 21 37 24 37 2 0 1 -22 -2
-50 -7 -60 12 -75 55 -43 25 19 27 24 24 94 -5 115 -12 127 -49 87z"/>
<path d="M6123 972 c-12 -10 -25 -34 -29 -57 -3 -22 -15 -55 -26 -72 -11 -18
-15 -33 -9 -33 6 0 11 -19 11 -45 0 -46 24 -85 54 -85 17 0 76 41 90 62 16 25
1 32 -28 13 -33 -22 -56 -6 -56 36 0 21 7 31 28 41 31 15 39 55 9 50 -16 -3
-18 1 -11 30 16 73 6 91 -33 60z"/>
<path d="M6297 938 c-92 -108 -83 -248 14 -208 36 15 86 71 95 106 9 35 -4
105 -23 126 -25 28 -46 22 -86 -24z"/>
<path d="M5737 782 c-9 -10 -26 -39 -37 -65 -12 -26 -22 -47 -24 -47 -2 0 0
21 4 46 8 51 -3 64 -39 44 -19 -10 -21 -20 -21 -110 0 -59 4 -101 11 -105 20
-13 48 28 76 109 l28 81 5 -65 c7 -93 26 -113 66 -69 15 16 16 24 6 39 -7 11
-12 40 -12 64 0 84 -27 118 -63 78z"/>
<path d="M5484 721 c-17 -11 -41 -39 -53 -64 -50 -103 -35 -167 40 -167 45 0
108 25 116 47 9 23 -4 26 -31 8 -15 -10 -33 -14 -46 -10 -22 7 -22 7 5 35 36
38 51 114 30 147 -19 28 -22 28 -61 4z"/>
<path d="M5302 645 c-9 -20 -8 -34 4 -68 23 -60 23 -91 0 -95 -27 -6 -36 15
-36 91 0 37 -4 67 -9 67 -5 0 -20 -13 -33 -28 -21 -26 -23 -35 -18 -90 6 -62
28 -102 58 -102 33 0 79 49 96 100 14 43 15 58 5 88 -21 67 -47 81 -67 37z"/>
<path d="M5097 570 c-13 -13 -20 -39 -24 -92 -6 -81 5 -118 35 -118 23 0 92
63 92 84 0 21 -9 20 -32 -1 -30 -27 -40 -1 -33 80 7 72 -2 84 -38 47z"/>
<path d="M4965 553 c-15 -22 -16 -31 -5 -63 9 -27 9 -43 1 -56 -9 -17 -10 -17
-11 7 0 14 -6 34 -14 45 -14 19 -15 19 -42 -2 -33 -24 -42 -44 -20 -44 24 0
38 -37 34 -88 -3 -44 -1 -47 23 -50 30 -3 44 20 54 91 6 37 12 46 31 51 25 7
33 39 14 51 -5 3 -10 19 -10 35 0 19 -7 33 -19 39 -15 9 -22 6 -36 -16z"/>
<path d="M4513 551 c-79 -27 -183 -108 -183 -142 0 -14 8 -11 53 20 56 38 95
57 133 65 l32 7 -5 -163 c-5 -146 -4 -166 11 -181 27 -26 58 -20 118 22 62 45
122 126 138 189 38 148 -118 245 -297 183z m198 -81 c51 -28 74 -102 48 -153
-17 -33 -60 -77 -92 -94 -36 -18 -53 -6 -68 50 -9 35 -4 199 7 218 5 8 79 -7
105 -21z"/>
</g>
</svg>
